<svg role="img" aria-label="Макпак" viewBox="0 0 100 59" xmlns="http://www.w3.org/2000/svg">
  <title>Макпак</title>
  <path
    fill="#98c11d"
    d="M61.4695 0.187815C52.3056 0.251579 45.4919 2.85681 41.2288 7.97617C35.0528 15.4002 36.7653 25.1925 36.8382 25.6024L37.1844 27.4789L39.0791 27.7613C39.2157 27.7796 40.2815 27.9344 41.9302 27.9344C45.501 27.9344 51.7591 27.2148 56.8238 22.8424C58.7367 21.1936 60.2853 19.1987 61.4786 16.8758V30.5032C52.3147 30.5487 45.501 33.1631 41.2379 38.2824C35.0619 45.7064 36.7744 55.4988 36.8473 55.9087L37.1935 57.7852L39.0882 58.0676C39.2248 58.0858 40.2906 58.2407 41.9394 58.2407C45.5102 58.2407 51.7682 57.521 56.8329 53.1577C58.7458 51.509 60.2944 49.5141 61.4877 47.1912V57.5757H66.8439V0.178711H61.4877L61.4695 0.187815ZM53.3623 18.7615C49.582 22.0408 44.6721 22.5691 41.9302 22.5782C41.8574 19.891 42.2399 15.0996 45.3735 11.3648C48.2065 7.98529 52.7702 6.06324 58.9553 5.63511C58.5181 11.5105 56.6416 15.9194 53.3714 18.7615H53.3623ZM53.3623 49.0768C49.582 52.3561 44.6721 52.8845 41.9302 52.8936C41.8574 50.2064 42.2399 45.4149 45.3735 41.6802C48.2065 38.3007 52.7702 36.3786 58.9553 35.9505C58.5181 41.8259 56.6416 46.2348 53.3714 49.0768H53.3623Z"
  />
  <path
    fill="#000000"
    d="M94.3342 15.0726C93.7967 14.608 93.1682 14.1434 92.4577 13.688C93.1591 13.2416 93.7967 12.7771 94.3342 12.3125C97.8776 9.27004 100 4.75188 100 0.224609H93.8241C93.8241 2.34705 92.904 5.40774 90.317 7.63038C87.6845 9.88946 83.7493 10.8642 78.8577 10.5271V0.224609H72.6816V27.1605H78.8577V16.858C83.7493 16.521 87.6845 17.4956 90.317 19.7547C92.904 21.9774 93.8241 25.038 93.8241 27.1605H100C100 22.6332 97.8868 18.1151 94.3342 15.0726Z"
  />
  <path
    fill="#000000"
    d="M94.3342 45.4876C93.7967 45.0231 93.1682 44.5585 92.4577 44.103C93.1591 43.6567 93.7967 43.1921 94.3342 42.7275C97.8776 39.6851 100 35.1669 100 30.6396H93.8241C93.8241 32.7621 92.904 35.8228 90.317 38.0454C87.6845 40.3045 83.7493 41.2792 78.8577 40.9422V30.6396H72.6816V57.5755H78.8577V47.273C83.7493 46.936 87.6845 47.9107 90.317 50.1698C92.904 52.3924 93.8241 55.4531 93.8241 57.5755H100C100 53.0483 97.8868 48.5301 94.3342 45.4876Z"
  />
  <path
    fill="#000000"
    d="M32.2374 27.1601H26.0614V9.28789L23.2193 13.3597C21.4613 15.8738 19.0291 17.2766 16.3692 17.3222C13.6456 17.3677 11.0768 15.9922 9.14563 13.4326L9.05454 13.305L6.17603 9.06926V27.1601H0V4.31426C0 2.55619 1.01112 1.04406 2.64167 0.369984C4.5637 -0.422516 6.97764 0.0875943 8.50798 1.61794L8.7175 1.82746L14.1101 9.77067C14.8024 10.6634 15.5676 11.1735 16.2599 11.1553C17.1162 11.137 17.8176 10.3172 18.1546 9.82533L24.0756 1.40843C25.442 0.0420522 27.4824 -0.367861 29.2769 0.369984C31.0623 1.10783 32.2192 2.83857 32.2192 4.77883V27.151L32.2374 27.1601Z"
  />
  <path
    fill="#000000"
    d="M32.2374 57.575H26.0614V41.4609C26.0614 40.1309 25.5422 38.883 24.5857 37.9447C23.6383 37.0065 22.3813 36.5146 21.0513 36.5237L11.0312 36.6421C8.36224 36.6786 6.17603 38.8921 6.17603 41.5793V57.575H0V41.5793C0 35.549 4.90986 30.5663 10.9401 30.4752L20.9603 30.3568C23.9298 30.3112 26.7719 31.4499 28.9126 33.5541C31.0532 35.6583 32.2283 38.4731 32.2283 41.47V57.5841L32.2374 57.575Z"
  />
</svg>
